<svg width="24" height="33" viewBox="0 0 24 33" fill="none" xmlns="http://www.w3.org/2000/svg">
<path d="M21.3432 4.63467C19.0074 2.15699 15.5724 0.642853 12 0.642853C8.4276 0.642853 4.99259 2.01934 2.65679 4.63467C0.733185 6.83705 -0.228616 9.59002 0.0461842 12.343C0.0461842 12.8936 0.183584 13.4442 0.320985 13.8571C1.55759 19.6384 7.87799 30.0171 10.626 31.9442C11.0382 32.2195 11.4504 32.3571 12 32.3571C12.5496 32.3571 12.9618 32.2195 13.374 31.9442C15.9846 30.0171 22.4424 19.6384 23.679 13.8571C23.8164 13.4442 23.8164 12.8936 23.9538 12.343C24.2286 9.59002 23.2668 6.83705 21.3432 4.63467ZM12 16.4725C9.939 16.4725 8.15279 14.8207 8.15279 12.6183C8.15279 10.4159 9.8016 8.76413 12 8.76413C14.1984 8.76413 15.8472 10.4159 15.8472 12.6183C15.8472 14.8207 14.061 16.4725 12 16.4725Z" fill="#F76122"/>
</svg>
